<?xml version="1.0" encoding="UTF-8" standalone="no"?>
<!-- Created with Inkscape (http://www.inkscape.org/) -->

<svg
   xmlns:dc="http://purl.org/dc/elements/1.1/"
   xmlns:cc="http://creativecommons.org/ns#"
   xmlns:rdf="http://www.w3.org/1999/02/22-rdf-syntax-ns#"
   xmlns:svg="http://www.w3.org/2000/svg"
   xmlns="http://www.w3.org/2000/svg"
   xmlns:sodipodi="http://sodipodi.sourceforge.net/DTD/sodipodi-0.dtd"
   xmlns:inkscape="http://www.inkscape.org/namespaces/inkscape"
   viewBox="0 0 64 64"
   version="1.1"
   id="svg8"
   inkscape:version="0.92.3 (2405546, 2018-03-11)"
   sodipodi:docname="skeleton.svg">
  <defs
     id="defs2" />
  <sodipodi:namedview
     id="base"
     pagecolor="#ffffff"
     bordercolor="#666666"
     borderopacity="1.0"
     inkscape:pageopacity="0.0"
     inkscape:pageshadow="2"
     inkscape:zoom="11.2"
     inkscape:cx="33.068296"
     inkscape:cy="31.111589"
     inkscape:document-units="px"
     inkscape:current-layer="layer1"
     showgrid="true"
     inkscape:window-width="1920"
     inkscape:window-height="1017"
     inkscape:window-x="-8"
     inkscape:window-y="-8"
     inkscape:window-maximized="1"
     units="px">
    <inkscape:grid
       type="xygrid"
       id="grid1136" />
  </sodipodi:namedview>
  <metadata
     id="metadata5">
    <rdf:RDF>
      <cc:Work
         rdf:about="">
        <dc:format>image/svg+xml</dc:format>
        <dc:type
           rdf:resource="http://purl.org/dc/dcmitype/StillImage" />
        <dc:title></dc:title>
      </cc:Work>
    </rdf:RDF>
  </metadata>
  <g
     inkscape:label="Layer 1"
     inkscape:groupmode="layer"
     id="layer1"
     transform="translate(0,44)">
    <path
       style="fill:#ffffff;fill-opacity:1;stroke:#929292;stroke-width:1;stroke-linecap:round;stroke-linejoin:round;stroke-miterlimit:4;stroke-dasharray:none;stroke-opacity:1;paint-order:normal"
       d="m 42,-7 c -1,0 -2,1 -2,3 1.009162,0.9911933 3,2 4,1 v -4"
       id="path1012"
       inkscape:connector-curvature="0"
       sodipodi:nodetypes="cccc" />
    <path
       style="fill:#ffffff;fill-opacity:1;stroke:#929292;stroke-width:1;stroke-linecap:round;stroke-linejoin:round;stroke-miterlimit:4;stroke-dasharray:none;stroke-opacity:1;paint-order:normal"
       d="m 22.000212,2.9997718 c -1,4 1,8.0000012 3,10.0000012"
       id="path899"
       inkscape:connector-curvature="0"
       sodipodi:nodetypes="cc" />
    <path
       style="fill:#ffffff;fill-opacity:1;stroke:#929292;stroke-width:1;stroke-linecap:round;stroke-linejoin:round;stroke-miterlimit:4;stroke-dasharray:none;stroke-opacity:1;paint-order:normal"
       d="m 26.000212,11.999773 -6,4 c -1.5,1 3,4.5 4,3 0,0 3.328379,-3.38595 5,-5 1,-1 -1.328615,-3.002831 -3,-2 z"
       id="path889"
       inkscape:connector-curvature="0"
       sodipodi:nodetypes="csccc" />
    <path
       style="fill:#ffffff;fill-opacity:1;stroke:#929292;stroke-width:1;stroke-linecap:round;stroke-linejoin:round;stroke-miterlimit:4;stroke-dasharray:none;stroke-opacity:1;paint-order:normal"
       d="m 25.500212,12.999773 c 0.481663,0.963327 2.9,0 2.5,-1 l -4,-10.0000012 -2,1 c 0,0 3,9.0000012 3.5,10.0000012 z"
       id="path885"
       inkscape:connector-curvature="0"
       sodipodi:nodetypes="ssccs" />
    <path
       style="fill:none;fill-opacity:1;stroke:#929292;stroke-width:1;stroke-linecap:round;stroke-linejoin:round;stroke-miterlimit:4;stroke-dasharray:none;stroke-opacity:1;paint-order:stroke fill markers"
       d="m 13.000212,-25.000227 -2,-2 L 10,-29"
       id="path869"
       inkscape:connector-curvature="0"
       sodipodi:nodetypes="ccc" />
    <path
       style="fill:#ffffff;fill-opacity:1;stroke:#929292;stroke-width:1px;stroke-linecap:butt;stroke-linejoin:round;stroke-opacity:1"
       d="M 39.000212,-23.000227 45,-16 l -2,1 -3.999788,-5.000227"
       id="path851"
       inkscape:connector-curvature="0"
       sodipodi:nodetypes="cccc" />
    <path
       style="fill:#ffffff;fill-opacity:1;stroke:#929292;stroke-width:1px;stroke-linecap:butt;stroke-linejoin:miter;stroke-opacity:1"
       d="m 14.000212,-23.000227 c 0,0 -2,0 -2,-1 0,-1 1,-2 2,-2 1,0 1,0 1,1"
       id="path5879"
       inkscape:connector-curvature="0"
       sodipodi:nodetypes="cssc" />
    <path
       style="fill:#ffffff;fill-opacity:1;stroke:#929292;stroke-width:1px;stroke-linecap:butt;stroke-linejoin:round;stroke-opacity:1"
       d="m 25.000214,-23.000227 -5.000001,6 v 3 l 5.000001,-6"
       id="path5859"
       inkscape:connector-curvature="0"
       sodipodi:nodetypes="cccc" />
    <path
       style="fill:#ffffff;fill-opacity:1;stroke:#929292;stroke-width:1px;stroke-linecap:butt;stroke-linejoin:miter;stroke-opacity:1"
       d="m 31.000215,-13.000227 v 4.9999988 h 2 v -4.9999988"
       id="path5840"
       inkscape:connector-curvature="0" />
    <path
       style="fill:#ffffff;fill-opacity:1;stroke:#929292;stroke-width:1px;stroke-linecap:butt;stroke-linejoin:miter;stroke-opacity:1"
       d="m 31.000215,-24.000227 v 2 h 2 v -2 h -2"
       id="path4616"
       inkscape:connector-curvature="0"
       sodipodi:nodetypes="ccccc" />
    <path
       style="fill:#ffffff;fill-opacity:0.969697;stroke:#929292;stroke-width:1px;stroke-linecap:butt;stroke-linejoin:round;stroke-opacity:1"
       d="m 27.000214,-31.000227 c 0,-2 2,-4 5.000001,-4 3,0 5.000001,2 5.000001,4 0,2 1,4 -1.000001,4 -1,0 -1,3 -1,3 h -6.000001 c 0,0 0,-3 -1,-3 -2,0 -1,-2 -1,-4 z"
       id="path4519"
       inkscape:connector-curvature="0"
       sodipodi:nodetypes="zsssccsz" />
    <path
       style="fill:#929292;fill-opacity:1;stroke:none;stroke-width:1px;stroke-linecap:butt;stroke-linejoin:miter;stroke-opacity:1"
       d="m 30.000215,-31.000227 c 0,0 -1.000001,0 -1.000001,1 0,1 0,2 1.000001,2 1,0 1,-2 1,-2 z"
       id="path4533"
       inkscape:connector-curvature="0" />
    <path
       style="fill:#929292;fill-opacity:1;stroke:none;stroke-width:1px;stroke-linecap:butt;stroke-linejoin:miter;stroke-opacity:1"
       d="m 34.000215,-31.000227 c 0,0 1,0 1,1 0,1 0,2 -1,2 -1,0 -1,-2 -1,-2 z"
       id="path4533-1"
       inkscape:connector-curvature="0" />
    <path
       style="fill:none;stroke:#929292;stroke-width:0.5;stroke-linecap:round;stroke-linejoin:miter;stroke-miterlimit:4;stroke-dasharray:none;stroke-opacity:1"
       d="m 29.000214,-26.000227 h 6.000001"
       id="path4552"
       inkscape:connector-curvature="0"
       sodipodi:nodetypes="cc" />
    <path
       style="fill:none;stroke:#929292;stroke-width:0.5;stroke-linecap:round;stroke-linejoin:miter;stroke-miterlimit:4;stroke-dasharray:none;stroke-opacity:1"
       d="m 34.000215,-25.500227 v -1"
       id="path4554-4"
       inkscape:connector-curvature="0"
       sodipodi:nodetypes="cc" />
    <path
       style="fill:none;stroke:#929292;stroke-width:0.5;stroke-linecap:round;stroke-linejoin:miter;stroke-miterlimit:4;stroke-dasharray:none;stroke-opacity:1"
       d="m 31.500215,-28.500227 -0.25,0.5"
       id="path4591"
       inkscape:connector-curvature="0"
       sodipodi:nodetypes="cc" />
    <path
       style="fill:none;stroke:#929292;stroke-width:0.5;stroke-linecap:round;stroke-linejoin:miter;stroke-miterlimit:4;stroke-dasharray:none;stroke-opacity:1"
       d="m 32.501821,-28.503414 0.25,0.5"
       id="path4591-8"
       inkscape:connector-curvature="0"
       sodipodi:nodetypes="cc" />
    <path
       style="fill:#ffffff;fill-opacity:1;stroke:#929292;stroke-width:1px;stroke-linecap:round;stroke-linejoin:round;stroke-opacity:1"
       d="m 33.000215,-22.000227 c 0,0 3,-2 6.000001,-1 0,0 0,10 -2,10 H 27.000214 c -2,0 -2,-10 -2,-10 3,-1 6.000001,1 6.000001,1 z"
       id="path4618"
       inkscape:connector-curvature="0"
       sodipodi:nodetypes="csssscc" />
    <path
       style="fill:none;fill-opacity:1;stroke:#929292;stroke-width:1px;stroke-linecap:round;stroke-linejoin:miter;stroke-opacity:1"
       d="M 38.500216,-20.000227 H 34.000215"
       id="path4647"
       inkscape:connector-curvature="0"
       sodipodi:nodetypes="cc" />
    <path
       style="fill:none;stroke:#929292;stroke-width:1px;stroke-linecap:round;stroke-linejoin:miter;stroke-opacity:1"
       d="M 38.500216,-18.000227 H 34.000215"
       id="path4649"
       inkscape:connector-curvature="0"
       sodipodi:nodetypes="cc" />
    <path
       style="fill:none;stroke:#929292;stroke-width:1px;stroke-linecap:round;stroke-linejoin:miter;stroke-opacity:1"
       d="M 38.000216,-16.000227 H 34.000215"
       id="path4651"
       inkscape:connector-curvature="0" />
    <path
       style="fill:none;stroke:#929292;stroke-width:1px;stroke-linecap:round;stroke-linejoin:miter;stroke-opacity:1"
       d="M 30.000215,-20.000227 H 25.500214"
       id="path4647-5"
       inkscape:connector-curvature="0"
       sodipodi:nodetypes="cc" />
    <path
       style="fill:none;stroke:#929292;stroke-width:1px;stroke-linecap:round;stroke-linejoin:miter;stroke-opacity:1"
       d="M 30.000215,-18.000227 H 25.500214"
       id="path4647-2"
       inkscape:connector-curvature="0"
       sodipodi:nodetypes="cc" />
    <path
       style="fill:none;stroke:#929292;stroke-width:1px;stroke-linecap:round;stroke-linejoin:miter;stroke-opacity:1"
       d="M 30.000215,-16.000227 H 26.000214"
       id="path4647-4"
       inkscape:connector-curvature="0"
       sodipodi:nodetypes="cc" />
    <path
       style="fill:none;stroke:#929292;stroke-width:0.5;stroke-linecap:round;stroke-linejoin:miter;stroke-miterlimit:4;stroke-dasharray:none;stroke-opacity:1"
       d="m 33.000215,-25.500227 v -1"
       id="path4554-4-8"
       inkscape:connector-curvature="0"
       sodipodi:nodetypes="cc" />
    <path
       style="fill:none;stroke:#929292;stroke-width:0.5;stroke-linecap:round;stroke-linejoin:miter;stroke-miterlimit:4;stroke-dasharray:none;stroke-opacity:1"
       d="m 32.000215,-25.500227 v -1"
       id="path4554-4-5"
       inkscape:connector-curvature="0"
       sodipodi:nodetypes="cc" />
    <path
       style="fill:none;stroke:#929292;stroke-width:0.5;stroke-linecap:round;stroke-linejoin:miter;stroke-miterlimit:4;stroke-dasharray:none;stroke-opacity:1"
       d="m 31.000215,-25.500227 v -1"
       id="path4554-4-80"
       inkscape:connector-curvature="0"
       sodipodi:nodetypes="cc" />
    <path
       style="fill:none;stroke:#929292;stroke-width:0.5;stroke-linecap:round;stroke-linejoin:miter;stroke-miterlimit:4;stroke-dasharray:none;stroke-opacity:1"
       d="m 30.000215,-25.500227 v -1"
       id="path4554-4-4"
       inkscape:connector-curvature="0"
       sodipodi:nodetypes="cc" />
    <path
       style="fill:#ffffff;fill-opacity:1;stroke:#929292;stroke-width:1px;stroke-linecap:butt;stroke-linejoin:miter;stroke-opacity:1"
       d="m 36.000215,-11.000227 c 2.000001,0 2.000001,1.9999988 2.000001,2.9999988 0,1 -2.000001,1 -2.000001,1.9999999 0,1 1.000001,0 1.000001,1 0,1.0000001 -2.000001,2 -3.000001,2 -1,0 -1.254644,-0.9999999 -2,-0.9999999 -0.745356,0 -1,0.9999999 -2,0.9999999 -1.000001,0 -3.000001,-0.9999999 -3.000001,-2 0,-1 1,0 1,-1 0,-0.9999999 -2,-0.9999999 -2,-1.9999999 0,-1 0,-2.9999988 2,-2.9999988 2.000001,0 3.000001,1.9999988 4.000001,1.9999988 1,0 2,-1.9999988 4,-1.9999988 z"
       id="path4725"
       inkscape:connector-curvature="0"
       sodipodi:nodetypes="sssssssssssss" />
    <path
       style="fill:#929292;fill-opacity:1;stroke:#929292;stroke-width:0.5;stroke-linecap:butt;stroke-linejoin:round;stroke-miterlimit:4;stroke-dasharray:none;stroke-opacity:1"
       d="m 30.00025,-5.0002283 -1.000001,-1 v 1 z"
       id="path5842"
       inkscape:connector-curvature="0" />
    <path
       style="fill:#929292;fill-opacity:1;stroke:#929292;stroke-width:0.5;stroke-linecap:butt;stroke-linejoin:round;stroke-miterlimit:4;stroke-dasharray:none;stroke-opacity:1"
       d="m 34.000215,-5.0002283 1,-1 v 1 z"
       id="path5842-3"
       inkscape:connector-curvature="0" />
    <path
       style="fill:#ffffff;fill-opacity:1;stroke:#929292;stroke-width:1px;stroke-linecap:butt;stroke-linejoin:round;stroke-opacity:1"
       d="m 15.000213,-25.000227 -1.000001,2 c 1.000001,3 4.000001,7 6.000001,9 v -3 c -1,-3 -3,-7 -5,-8 z"
       id="path5865"
       inkscape:connector-curvature="0"
       sodipodi:nodetypes="ccccc" />
    <path
       style="fill:none;stroke:#929292;stroke-width:1;stroke-linecap:round;stroke-linejoin:miter;stroke-miterlimit:4;stroke-dasharray:none;stroke-opacity:1"
       d="m 15.000213,-24.000227 c 0,0 4.999999,8 5,8"
       id="path5877"
       inkscape:connector-curvature="0"
       sodipodi:nodetypes="cc" />
    <path
       style="fill:none;fill-opacity:1;stroke:#929292;stroke-width:1;stroke-linecap:round;stroke-linejoin:round;stroke-miterlimit:4;stroke-dasharray:none;stroke-opacity:1;paint-order:stroke fill markers"
       d="m 15.000212,-26.000227 1,-1 L 16,-28.5"
       id="path863"
       inkscape:connector-curvature="0"
       sodipodi:nodetypes="ccc" />
    <path
       style="fill:none;fill-opacity:1;stroke:#929292;stroke-width:1;stroke-linecap:round;stroke-linejoin:round;stroke-miterlimit:4;stroke-dasharray:none;stroke-opacity:1;paint-order:stroke fill markers"
       d="m 14.000212,-26.000227 -1,-2 L 13,-30"
       id="path865"
       inkscape:connector-curvature="0"
       sodipodi:nodetypes="ccc" />
    <path
       style="fill:none;fill-opacity:1;stroke:#929292;stroke-width:1;stroke-linecap:round;stroke-linejoin:round;stroke-miterlimit:4;stroke-dasharray:none;stroke-opacity:1;paint-order:stroke fill markers"
       d="m 12.000212,-24.000227 -2,-1 L 9,-26.5"
       id="path871"
       inkscape:connector-curvature="0"
       sodipodi:nodetypes="ccc" />
    <path
       style="fill:#ffffff;fill-opacity:1;stroke:#929292;stroke-width:1;stroke-linecap:round;stroke-linejoin:round;stroke-miterlimit:4;stroke-dasharray:none;stroke-opacity:1;paint-order:normal"
       d="m 27.000212,-6.0002282 c 1,-1.6 3,-0.6 2,1 l -5,8 c -0.625,1 -2.625,0 -2,-1 z"
       id="path873"
       inkscape:connector-curvature="0"
       sodipodi:nodetypes="sssss" />
    <path
       style="fill:#ffffff;fill-opacity:1;stroke:#929292;stroke-width:1;stroke-linecap:round;stroke-linejoin:round;stroke-miterlimit:4;stroke-dasharray:none;stroke-opacity:1;paint-order:normal"
       d="M 24.000212,15.999773 Z"
       id="path887"
       inkscape:connector-curvature="0" />
    <path
       style="fill:#ffffff;fill-opacity:1;stroke:#929292;stroke-width:0.5;stroke-linecap:round;stroke-linejoin:round;stroke-miterlimit:4;stroke-dasharray:none;stroke-opacity:1;paint-order:normal"
       d="m 22.000212,18.999773 2,-2"
       id="path891"
       inkscape:connector-curvature="0" />
    <path
       style="fill:#ffffff;fill-opacity:1;stroke:#929292;stroke-width:0.5;stroke-linecap:round;stroke-linejoin:round;stroke-miterlimit:4;stroke-dasharray:none;stroke-opacity:1;paint-order:normal"
       d="m 21.000212,17.999773 2,-2"
       id="path893"
       inkscape:connector-curvature="0" />
    <path
       style="fill:#ffffff;fill-opacity:1;stroke:#929292;stroke-width:1;stroke-linecap:round;stroke-linejoin:round;stroke-miterlimit:4;stroke-dasharray:none;stroke-opacity:1;paint-order:normal"
       id="path897"
       sodipodi:type="arc"
       sodipodi:cx="23.000212"
       sodipodi:cy="2.4997714"
       sodipodi:rx="2"
       sodipodi:ry="1.5"
       sodipodi:start="0"
       sodipodi:end="6.1488973"
       sodipodi:open="true"
       d="M 25.000212,2.4997714 A 2,1.5 0 0 1 23.067343,3.9989261 2,1.5 0 0 1 21.004718,2.6004117 2,1.5 0 0 1 22.79912,1.0073727 2,1.5 0 0 1 24.982206,2.2989442" />
    <path
       style="fill:#ffffff;fill-opacity:1;stroke:#929292;stroke-width:1;stroke-linecap:round;stroke-linejoin:round;stroke-miterlimit:4;stroke-dasharray:none;stroke-opacity:1;paint-order:normal"
       d="m 42,3 c 1,4 -1,8.000002 -3,10.000002"
       id="path899-0"
       inkscape:connector-curvature="0"
       sodipodi:nodetypes="cc" />
    <path
       style="fill:#ffffff;fill-opacity:1;stroke:#929292;stroke-width:1;stroke-linecap:round;stroke-linejoin:round;stroke-miterlimit:4;stroke-dasharray:none;stroke-opacity:1;paint-order:normal"
       d="m 38,12.000002 5.999999,4 c 1.5,1 -2.999999,4.5 -3.999999,3 0,0 -3.328379,-3.38595 -5,-5 -1.000001,-1 1.328615,-3.002831 3,-2 z"
       id="path889-0"
       inkscape:connector-curvature="0"
       sodipodi:nodetypes="csccc" />
    <path
       style="fill:#ffffff;fill-opacity:1;stroke:#929292;stroke-width:1;stroke-linecap:round;stroke-linejoin:round;stroke-miterlimit:4;stroke-dasharray:none;stroke-opacity:1;paint-order:normal"
       d="m 38.5,13.000002 c -0.481663,0.963327 -2.9,0 -2.5,-1 L 40,2 42,3 c 0,0 -3,9.000002 -3.5,10.000002 z"
       id="path885-6"
       inkscape:connector-curvature="0"
       sodipodi:nodetypes="ssccs" />
    <path
       style="fill:#ffffff;fill-opacity:1;stroke:#929292;stroke-width:1;stroke-linecap:round;stroke-linejoin:round;stroke-miterlimit:4;stroke-dasharray:none;stroke-opacity:1;paint-order:normal"
       d="m 37,-6 c -1,-1.6 -3.000001,-0.6 -2,1 l 5,8 c 0.625,1 2.625,0 2,-1 z"
       id="path873-3"
       inkscape:connector-curvature="0"
       sodipodi:nodetypes="sssss" />
    <path
       style="fill:#ffffff;fill-opacity:1;stroke:#929292;stroke-width:1;stroke-linecap:round;stroke-linejoin:round;stroke-miterlimit:4;stroke-dasharray:none;stroke-opacity:1;paint-order:normal"
       d="M 40,16.000002 Z"
       id="path887-7"
       inkscape:connector-curvature="0" />
    <path
       style="fill:#ffffff;fill-opacity:1;stroke:#929292;stroke-width:0.5;stroke-linecap:round;stroke-linejoin:round;stroke-miterlimit:4;stroke-dasharray:none;stroke-opacity:1;paint-order:normal"
       d="m 42,19.000002 -2,-2"
       id="path891-2"
       inkscape:connector-curvature="0" />
    <path
       style="fill:#ffffff;fill-opacity:1;stroke:#929292;stroke-width:0.5;stroke-linecap:round;stroke-linejoin:round;stroke-miterlimit:4;stroke-dasharray:none;stroke-opacity:1;paint-order:normal"
       d="m 43,18.000002 -2,-2"
       id="path893-3"
       inkscape:connector-curvature="0" />
    <path
       style="fill:#ffffff;fill-opacity:1;stroke:#929292;stroke-width:1;stroke-linecap:round;stroke-linejoin:round;stroke-miterlimit:4;stroke-dasharray:none;stroke-opacity:1;paint-order:normal"
       id="path897-6"
       sodipodi:type="arc"
       sodipodi:cx="-41"
       sodipodi:cy="2.5000021"
       sodipodi:rx="2"
       sodipodi:ry="1.5"
       sodipodi:start="0"
       sodipodi:end="6.1488973"
       sodipodi:open="true"
       d="m -39,2.5000021 a 2,1.5 0 0 1 -1.932869,1.4991548 2,1.5 0 0 1 -2.062624,-1.3985144 2,1.5 0 0 1 1.794401,-1.593039 2,1.5 0 0 1 2.183086,1.2915715"
       transform="scale(-1,1)" />
    <path
       style="fill:#ffffff;fill-opacity:1;stroke:#929292;stroke-width:1;stroke-linecap:round;stroke-linejoin:round;stroke-miterlimit:4;stroke-dasharray:none;stroke-opacity:1;paint-order:normal"
       d="m 43,-15 c -1,1 -2,5 -1,8 h 2 c 1,-2 2,-7 1,-9 z"
       id="path970"
       inkscape:connector-curvature="0"
       sodipodi:nodetypes="ccccc" />
    <path
       style="fill:#ffffff;fill-opacity:1;stroke:#929292;stroke-width:1;stroke-linecap:round;stroke-linejoin:round;stroke-miterlimit:4;stroke-dasharray:none;stroke-opacity:1;paint-order:normal"
       d="m 43,-7 v -8"
       id="path974"
       inkscape:connector-curvature="0"
       sodipodi:nodetypes="cc" />
    <path
       style="fill:#ffffff;fill-opacity:1;stroke:#929292;stroke-width:0.5;stroke-linecap:round;stroke-linejoin:round;stroke-miterlimit:4;stroke-dasharray:none;stroke-opacity:1;paint-order:normal"
       d="m 41,-3 1,-2"
       id="path1014"
       inkscape:connector-curvature="0" />
    <path
       style="fill:#ffffff;fill-opacity:1;stroke:#929292;stroke-width:0.5;stroke-linecap:round;stroke-linejoin:round;stroke-miterlimit:4;stroke-dasharray:none;stroke-opacity:1;paint-order:normal"
       d="m 44,-4 -2,1"
       id="path1016"
       inkscape:connector-curvature="0" />
  </g>
</svg>
